<?xml version="1.0" encoding="utf-8"?>
<!-- Generator: Adobe Illustrator 27.2.0, SVG Export Plug-In . SVG Version: 6.00 Build 0)  -->
<svg version="1.1" xmlns="http://www.w3.org/2000/svg" xmlns:xlink="http://www.w3.org/1999/xlink" x="0px" y="0px"
	 viewBox="0 0 320 320" style="enable-background:new 0 0 320 320;" xml:space="preserve">
<style type="text/css">
	.st0{fill:#FAF5E5;}
</style>
<g id="Layer_1">
	<path class="st0" d="M189.4,160l124.5,124.5c8.1,8.1,8.1,21.3,0,29.4l0,0c-8.1,8.1-21.3,8.1-29.4,0L160,189.4L35.5,313.9
		c-8.1,8.1-21.3,8.1-29.4,0l0,0c-8.1-8.1-8.1-21.3,0-29.4L130.6,160L6.1,35.5C-2,27.4-2,14.2,6.1,6.1l0,0C14.2-2,27.4-2,35.5,6.1
		L160,130.6L284.5,6.1c8.1-8.1,21.3-8.1,29.4,0l0,0c8.1,8.1,8.1,21.3,0,29.4L189.4,160z"/>
</g>
<g id="Layer_2">
</g>
</svg>
