<?xml version="1.0" encoding="utf-8"?>
<!-- Generator: Adobe Illustrator 27.2.0, SVG Export Plug-In . SVG Version: 6.00 Build 0)  -->
<svg version="1.1" id="Layer_2_00000132787954676783305850000014299249307753686974_"
	 xmlns="http://www.w3.org/2000/svg" xmlns:xlink="http://www.w3.org/1999/xlink" x="0px" y="0px" viewBox="0 0 1279.7 762.4"
	 style="enable-background:new 0 0 1279.7 762.4;" xml:space="preserve">
<style type="text/css">
	.st0{fill:#FAF5E5;}
	.st1{fill:#464643;}
</style>
<path class="st0" d="M1279.7,216l0.2,2168.2H-0.2L-0.4,139.6c0.9-1.2,27.4-35.6,68.9-21.7c42.2,14.2,36.7,57.6,37.3,66.9
	c0.6,9.3-3.3,65.7-4.9,74.3c-1.6,8.6-2.7,53.2,20.8,70.6c23.6,17.3,64.2,8.7,66.2-50.2c2-58.6-10.2-69.4-9.2-110.2
	c2.7-48.4,19.1-85.1,50.3-84c25.9,1.6,31.6,34,28,72.5c-1.8,22.5,9,39,22.7,39s30.5-7.7,31.8-33.9c1.6-38,3.7-55.6,28.6-55.6
	c34.5,0,29.6,42.5,29.6,82.8c0,52,7.7,71.4,39.2,71.4c23.5,0,38.5-23.2,38.5-63.6s17.2-53.2,42.4-53.2s42.3,29.1,42.3,87.9
	s-18.6,148.7,32.8,148.7c51.4,0,48.6-94.5,44-162.2s0.6-110.7,38.4-112.4s44.9,23.7,44.9,54.3c0,41.5,15.9,53.6,37.6,53.6
	s37.5-18.3,42.5-53.9c1.4-16.7,10-37.6,35.5-36.5c25.4,1.1,41.2,37.8,34.4,73.7s5.3,71.4,31.1,72c25.8,0.6,45.3-25.1,45.8-59.2
	c-1.2-51,12.5-98.5,45.5-99.4c34.5-1.7,62.9,33.4,52,88.3c-4.2,25.6-22.8,57.1,2.7,80.3c21.2,19.7,53.7,7,60.6-14.4
	s-3.7-43-2.1-65.7s12.6-47.4,28.6-47.4s38.3,24.2,28.2,72.9c-5.6,36.9,10.2,47.8,24.7,47.8s31.3-13.6,25.4-61.5
	c-5.8-47.8,7-81.4,29-82.2c11.4,0,21.8,12,21.8,29.2s1.7,48.8,13.9,61.2C1261.5,232.1,1269.8,228.9,1279.7,216z"/>
<path class="st1" d="M986.1-636.3"/>
</svg>
