<?xml version="1.0" encoding="utf-8"?>
<!-- Generator: Adobe Illustrator 27.2.0, SVG Export Plug-In . SVG Version: 6.00 Build 0)  -->
<svg version="1.1" id="Layer_2_00000118374777867447459560000000224651583856213907_"
	 xmlns="http://www.w3.org/2000/svg" xmlns:xlink="http://www.w3.org/1999/xlink" x="0px" y="0px" viewBox="0 0 688.6 632.7"
	 style="enable-background:new 0 0 688.6 632.7;" xml:space="preserve">
<style type="text/css">
	.st0{fill:#E0BC8D;}
	.st1{fill:#E04B5D;}
	.st2{fill:#2994B2;}
	.st3{fill:#FA993C;}
	.st4{fill:#F2CD97;}
	.st5{fill:#556BA3;}
	.st6{fill:#FAF5E4;}
</style>
<rect x="327.4" y="216.2" class="st0" width="46.7" height="56.8"/>
<path class="st1" d="M633.4,510.1l-88.6,39l-21.9,9.6l-136,59.8c-12.8,5.6-26.4,8.5-40.4,8.5c-24.3,0-47.7-8.8-65.9-24.7l-97.1-84.7
	l-15.4-13.5L82,428.8c-7.2-6.2-9.7-15.9-6.4-24.8c3.3-9,11.6-14.8,21.1-14.8c1.1,0,2.1,0.1,3.2,0.2l68.4,9.5l15.4,2.1L523,448
	l21.9,3l82,11.3c11.2,1.5,19.8,10.1,21.3,21.3C649.7,494.9,643.8,505.5,633.4,510.1z"/>
<path class="st2" d="M618.7,325.8l56.3-32.3l-57,130.1c-1,2.2-4,2.2-5,0L597.8,390C587.1,366.5,596.1,338.7,618.7,325.8L618.7,325.8
	z"/>
<path class="st3" d="M642.1,523.3l-57,42.3l-15.5-249.7l85.9,136.2C670.4,475.6,664.5,506.7,642.1,523.3L642.1,523.3z"/>
<ellipse class="st4" cx="350.8" cy="146.4" rx="77" ry="91"/>
<path class="st5" d="M523,315.5v243.2l-136,59.8c-12.8,5.6-26.4,8.5-40.4,8.5c-24.3,0-47.7-8.8-65.9-24.7l-97.1-84.7v-202
	c0-39.2,31.8-70.9,70.9-70.9H452C491.3,244.6,523,276.3,523,315.5z"/>
<g>
	<path class="st6" d="M97.8,297c-11.1,0-21.6,2.1-31.3,6h62.6C119.4,299.1,108.8,297,97.8,297z"/>
	<path class="st6" d="M142.1,309.7H53.4c-2.2,1.3-4.3,2.8-6.3,4.3h101.3C146.3,312.5,144.2,311,142.1,309.7L142.1,309.7z"/>
	<path class="st6" d="M156.1,320.6H39.4c-1.4,1.3-2.9,2.8-4.2,4.3h125.1C159,323.5,157.5,322,156.1,320.6L156.1,320.6z"/>
	<path class="st6" d="M165.6,331.4H29.9c-1,1.4-2,2.9-3,4.3h141.7C167.7,334.3,166.6,332.9,165.6,331.4L165.6,331.4z"/>
	<path class="st6" d="M172.4,342.4H23.1c-0.8,1.4-1.4,2.9-2.1,4.3h153.5C173.8,345.3,173.2,343.9,172.4,342.4z"/>
	<path class="st6" d="M177.2,353.3H18.3c-0.6,1.4-1,2.9-1.3,4.3h161.6C178.2,356.2,177.6,354.7,177.2,353.3z"/>
	<path class="st6" d="M180.2,364.3H15.3c-0.3,1.4-0.6,2.9-0.8,4.3h166.4C180.7,367.2,180.5,365.7,180.2,364.3L180.2,364.3z"/>
	<path class="st6" d="M97.8,465.3c7.3,0,14.4-0.9,21.2-2.7H76.5C83.4,464.3,90.5,465.3,97.8,465.3z"/>
	<path class="st6" d="M59.3,456h76.9c2.6-1.3,5-2.8,7.4-4.3H51.9C54.2,453.2,56.7,454.6,59.3,456L59.3,456z"/>
	<path class="st6" d="M43.1,445.1h109.3c1.7-1.3,3.2-2.9,4.7-4.3H38.3C39.9,442.2,41.4,443.6,43.1,445.1L43.1,445.1z"/>
	<path class="st6" d="M32.4,434.1H163c1.1-1.4,2.2-2.9,3.3-4.3H29.1C30.2,431.3,31.3,432.8,32.4,434.1z"/>
	<path class="st6" d="M24.9,423.2h145.7c0.8-1.4,1.6-2.9,2.3-4.3H22.6C23.3,420.3,24.1,421.8,24.9,423.2L24.9,423.2z"/>
	<path class="st6" d="M19.6,412.2h156.3c0.6-1.4,1.1-2.9,1.6-4.3H18C18.5,409.5,19,410.9,19.6,412.2L19.6,412.2z"/>
	<path class="st6" d="M16.1,401.4h163.3c0.3-1.4,0.7-2.9,1-4.3H15.1C15.5,398.5,15.8,399.9,16.1,401.4z"/>
	<path class="st6" d="M14.1,390.4h167.1c0.1-1.4,0.2-2.9,0.3-4.3H13.8C13.9,387.6,14,389,14.1,390.4z"/>
	<path class="st6" d="M181.6,375.2H13.9c-0.1,1.4-0.2,2.9-0.2,4.3h168.1C181.8,378.1,181.7,376.6,181.6,375.2z"/>
</g>
<path d="M299.1,108.5c32.9-8.1,46.7-20.4,62.1-18.8c1.3,0.1,6.4,1.4,12.9,4.4c35.8,16.6,42.1,58.6,50.7,56.8
	c6.9-1.4,8.7-29.5,2.9-51.9c-2.2-8.7-5.2-20-14.4-30.6C402.9,56.5,395.4,58,386.7,45c-6.8-10.2-7.7-19.4-12.7-19.6
	c-4.2-0.2-5.2,6.2-12.5,9.5c-6.4,2.8-10.3-0.1-18.4-0.4c-11.6-0.4-20.3,4.9-36.5,14.7c-9,5.4-20.1,13.5-20.2,13.6l0,0
	c-7.4,5.4-11.5,11.3-13.4,14c-4.3,6.2-10.9,15.6-11.3,28.7c-0.2,5.6-0.4,13.2,3.9,16.4C271.7,126.4,285.1,121.3,299.1,108.5z"/>
</svg>
