<?xml version="1.0" encoding="utf-8"?>
<!-- Generator: Adobe Illustrator 27.2.0, SVG Export Plug-In . SVG Version: 6.00 Build 0)  -->
<svg version="1.1" id="Layer_1" xmlns="http://www.w3.org/2000/svg" xmlns:xlink="http://www.w3.org/1999/xlink" x="0px" y="0px"
	 viewBox="0 0 198.2 198.2" style="enable-background:new 0 0 198.2 198.2;" xml:space="preserve">
<style type="text/css">
	.st0{fill:#2994B2;}
	.st1{fill:#FA993C;}
</style>
<g id="Layer_1_00000091712941994973913080000002096505303873673389_">
	<path class="st0" d="M103.8,178.2c2.1,5.9,3.8,12,5.1,18.4c-4.4,0.6-12.2,1.5-17.5,1.5c-4,0-9-0.2-15.2-0.6
		c-6.1-0.5-12.7-1.2-19.7-2.4h-0.2V3c1.4-0.2,2.6-0.5,3.8-0.6c2-0.3,3.8-0.6,5.7-0.8c3.7-0.5,7.3-0.9,10.4-1.1
		C82.2,0.2,87.1,0,91.4,0c5.8,0,10.9,0.3,15.8,1.2c-0.9,6.4-2.1,12.5-3.8,18.6c-3.1-0.5-6.4-0.8-9.8-0.8c-3.8,0-7.7,0.3-11.3,0.8
		c-0.9,0.2-2,0.3-2.9,0.5c-1.2,0.2-2.4,0.5-3.8,0.8v63.4h17c0.2,3,0.3,6.1,0.3,9c0,3-0.2,6.1-0.3,8.8h-17v74.4
		c2.4,0.6,4.7,1.1,7,1.4c3.7,0.6,7.5,0.8,11.2,0.8C96,179.1,101.5,178.4,103.8,178.2L103.8,178.2z"/>
	<path class="st1" d="M105.5,102.6h6.4c5.5,0,10.4,2.4,10.4,10.5v52.8c0,4.6-2,7.3-4.9,8.5c1.2,6.9,3.1,12.7,5.7,19.4
		c11-2.3,19.4-11.4,19.6-22.7v-62.4c0,0,0.3-11.6-11.5-14.9c11.8-3.5,11.5-15.1,11.5-15.1v-52c-0.3-12-10-22.1-22.8-23
		c-2.3,6.7-3.5,12.7-4.3,19.5c3.8,1.1,6.7,3.8,6.7,9l-0.5,41.6c0,8.4-5.1,10.8-10.4,10.8h-6.1C104.4,93,105.5,102.6,105.5,102.6"/>
</g>
</svg>
