<?xml version="1.0" encoding="utf-8"?>
<!-- Generator: Adobe Illustrator 27.2.0, SVG Export Plug-In . SVG Version: 6.00 Build 0)  -->
<svg version="1.1" id="Layer_1" xmlns="http://www.w3.org/2000/svg" xmlns:xlink="http://www.w3.org/1999/xlink" x="0px" y="0px"
	 viewBox="0 0 536.7 460" style="enable-background:new 0 0 536.7 460;" xml:space="preserve">
<style type="text/css">
	.st0{fill:#FAF5E5;}
</style>
<path class="st0" d="M3.5,40.8C3.5,19.9,20.4,3,41.3,3h454c20.9,0,37.8,16.9,37.8,37.8s-16.9,37.8-37.8,37.8h-454
	C20.4,78.7,3.5,61.8,3.5,40.8z M3.5,230c0-20.9,16.9-37.8,37.8-37.8h454c20.9,0,37.8,16.9,37.8,37.8s-16.9,37.8-37.8,37.8h-454
	C20.4,267.8,3.5,250.9,3.5,230z M533.2,419.2c0,20.9-16.9,37.8-37.8,37.8h-454c-20.9,0-37.8-16.9-37.8-37.8s16.9-37.8,37.8-37.8h454
	C516.3,381.3,533.2,398.2,533.2,419.2z"/>
</svg>
