<?xml version="1.0" encoding="utf-8"?>
<!-- Generator: Adobe Illustrator 27.2.0, SVG Export Plug-In . SVG Version: 6.00 Build 0)  -->
<svg version="1.1" id="Layer_1" xmlns="http://www.w3.org/2000/svg" xmlns:xlink="http://www.w3.org/1999/xlink" x="0px" y="0px"
	 viewBox="0 0 151.5 151.6" style="enable-background:new 0 0 151.5 151.6;" xml:space="preserve">
<style type="text/css">
	.st0{fill:#FAF5E4;}
</style>
<path class="st0" d="M75.8,0c-10,0-19.5,1.9-28.2,5.4H104C95.3,1.9,85.7,0,75.8,0z"/>
<path class="st0" d="M115.7,11.4H35.8c-2,1.2-3.9,2.5-5.7,3.9h91.3C119.6,13.9,117.7,12.6,115.7,11.4L115.7,11.4z"/>
<path class="st0" d="M128.3,21.2H23.2c-1.3,1.2-2.6,2.6-3.8,3.9h112.7C130.9,23.8,129.6,22.5,128.3,21.2L128.3,21.2z"/>
<path class="st0" d="M136.9,31H14.6c-0.9,1.3-1.8,2.6-2.7,3.9h127.7C138.8,33.6,137.9,32.3,136.9,31L136.9,31z"/>
<path class="st0" d="M143,40.9H8.5c-0.7,1.3-1.3,2.6-1.9,3.9h138.3C144.3,43.5,143.7,42.2,143,40.9L143,40.9z"/>
<path class="st0" d="M147.3,50.7H4.2C3.8,52,3.4,53.3,3,54.6h145.6C148.2,53.3,147.7,52,147.3,50.7L147.3,50.7z"/>
<path class="st0" d="M150,60.6H1.5c-0.3,1.3-0.5,2.6-0.7,3.9h149.9C150.5,63.2,150.3,61.9,150,60.6L150,60.6z"/>
<path class="st0" d="M75.8,151.6c6.6,0,13-0.8,19.1-2.4H56.6C62.7,150.7,69.1,151.6,75.8,151.6z"/>
<path class="st0" d="M41.1,143.2h69.3c2.3-1.2,4.5-2.5,6.7-3.9H34.4C36.6,140.7,38.8,142,41.1,143.2L41.1,143.2z"/>
<path class="st0" d="M26.5,133.3H125c1.5-1.2,2.9-2.5,4.2-3.9h-107C23.6,130.8,25,132.1,26.5,133.3z"/>
<path class="st0" d="M16.9,123.5h117.7c1-1.3,2-2.6,3-3.9H13.9C14.9,120.9,15.9,122.2,16.9,123.5L16.9,123.5z"/>
<path class="st0" d="M10.1,113.7h131.3c0.7-1.3,1.4-2.6,2.1-3.9H8C8.7,111.1,9.4,112.4,10.1,113.7L10.1,113.7z"/>
<path class="st0" d="M5.3,103.8h140.8c0.5-1.3,1-2.6,1.4-3.9H3.9C4.4,101.2,4.8,102.5,5.3,103.8z"/>
<path class="st0" d="M2.2,94h147.1c0.3-1.3,0.6-2.6,0.9-3.9H1.3C1.6,91.4,1.9,92.7,2.2,94z"/>
<path class="st0" d="M0.4,84.1h150.6c0.1-1.3,0.3-2.6,0.3-3.9H0.1C0.2,81.6,0.3,82.9,0.4,84.1z"/>
<path class="st0" d="M151.3,70.4H0.2C0.1,71.7,0,73,0,74.3h151.5C151.5,73,151.4,71.7,151.3,70.4z"/>
</svg>
