<?xml version="1.0" encoding="utf-8"?>
<!-- Generator: Adobe Illustrator 27.2.0, SVG Export Plug-In . SVG Version: 6.00 Build 0)  -->
<svg version="1.1" id="Layer_1" xmlns="http://www.w3.org/2000/svg" xmlns:xlink="http://www.w3.org/1999/xlink" x="0px" y="0px"
	 viewBox="0 0 96.4 131.5" style="enable-background:new 0 0 96.4 131.5;" xml:space="preserve">
<style type="text/css">
	.st0{fill:#FAF5E5;}
	.st1{fill:#2994B2;}
	.st2{opacity:0.8;fill:none;stroke:#474744;stroke-width:2;stroke-miterlimit:10;enable-background:new    ;}
	.st3{fill:#FA993C;}
</style>
<rect x="0" y="0" class="st0" width="96.4" height="131.3"/>
<path class="st1" d="M31.3,118.1c1.4,3.9,2.5,8,3.3,12.2c-2.9,0.4-8.1,1-11.5,1c-2.6,0-6-0.1-10-0.4c-4-0.3-8.4-0.8-13-1.6
	c0,0-0.1,0-0.1,0V2.1c0.9-0.1,1.7-0.3,2.5-0.4C3.8,1.5,5,1.3,6.2,1.2c2.4-0.3,4.8-0.6,6.9-0.7c3.9-0.3,7.2-0.4,10-0.4
	c3.8,0,7.2,0.2,10.4,0.8C33,4.9,32.1,9.1,31,13.1c-2-0.3-4.2-0.5-6.5-0.5c-2.5,0-5,0.2-7.5,0.5c-0.6,0.1-1.3,0.2-1.9,0.3
	c-0.8,0.1-1.6,0.3-2.5,0.5v42h10.2c0.4,0,0.7,0,1,0c0.1,2,0.2,4,0.2,6s-0.1,4-0.2,5.9H12.6v49.3c1.6,0.4,3.1,0.7,4.6,0.9
	c2.4,0.3,4.9,0.5,7.4,0.5C26.2,118.7,29.8,118.2,31.3,118.1L31.3,118.1z"/>
<line class="st2" x1="95.4" y1="0.2" x2="95.4" y2="131.5"/>
<path class="st3" d="M32.4,68h4.2c3.6,0,6.9,1.6,6.9,7v34.9c0,3-1.3,4.8-3.2,5.7c0.8,4.5,2,8.4,3.7,12.8c7.3-1.5,12.8-7.6,12.9-15
	V72.1c0,0,0.2-7.7-7.6-10c7.8-2.3,7.6-10,7.6-10V17.7c-0.2-8-6.6-14.6-15-15.3c-1.5,4.4-2.3,8.4-2.8,12.9c2.5,0.7,4.4,2.5,4.4,6
	l-0.3,27.6c0,5.6-3.3,7.2-6.9,7.2h-4C31.7,61.7,32.4,68,32.4,68"/>
</svg>
