<?xml version="1.0" encoding="UTF-8"?>
<svg id="Layer_1" data-name="Layer 1" xmlns="http://www.w3.org/2000/svg" viewBox="0 0 372.99 159.22">
  <defs>
    <style>
      .cls-1, .cls-2 {
        fill: #fa993c;
      }

      .cls-3, .cls-4 {
        fill: #2994b2;
      }

      .cls-2 {
        letter-spacing: -.17em;
      }

      .cls-2, .cls-4 {
        font-family: Ailerons-Regular, Ailerons;
        font-size: 90.85px;
      }

      .cls-4 {
        letter-spacing: -.22em;
      }

      .cls-5 {
        fill: none;
        opacity: .8;
        stroke: #474744;
        stroke-miterlimit: 10;
        stroke-width: 2px;
      }
    </style>
  </defs>
  <text class="cls-4" transform="translate(143.59 147.5)"><tspan x="0" y="0">lnabris</tspan></text>
  <text class="cls-2" transform="translate(143.86 77.22)"><tspan x="0" y="0">ilal</tspan></text>
  <path class="cls-3" d="m31.27,132.46c1.36,3.93,2.47,8.02,3.31,12.2-2.92.41-8.14,1.03-11.48,1.03-2.62,0-5.95-.15-9.98-.43-4.01-.29-8.36-.84-13.04-1.65-.03,0-.06,0-.08-.01V16.51c.86-.15,1.71-.28,2.54-.41,1.26-.2,2.48-.37,3.67-.53,2.44-.32,4.75-.57,6.92-.73,3.93-.29,7.25-.44,9.98-.44,3.77,0,7.24.25,10.42.75-.57,4.21-1.4,8.33-2.49,12.33-1.99-.32-4.16-.48-6.52-.48-2.51,0-5.03.18-7.54.53-.65.09-1.3.2-1.94.32-.82.15-1.64.33-2.46.53v42.03h10.22c.35,0,.7,0,1.04-.01.12,1.97.18,3.96.18,5.97s-.06,3.98-.18,5.94h-11.27v49.34c1.58.39,3.1.69,4.56.9,2.41.35,4.87.53,7.39.53,1.63,0,5.29-.48,6.76-.63Z"/>
  <line class="cls-5" x1="95.44" y1="14.64" x2="95.44" y2="145.88"/>
  <path class="cls-1" d="m152.85,50.6v18.63c-.09,4.45-3.63,8-8.09,8h-11.81V13.62h11.81c4.45,0,8,3.54,8.09,8v18.62s.09,4-3.72,5.18c3.82,1.18,3.72,5.18,3.72,5.18Zm-6.54-27.17c0-2.36-1.63-3.27-3.36-3.27h-3.54v22.26h3.54c1.73,0,3.36-.82,3.36-3.73v-15.26Zm0,28.62c0-2.82-1.63-3.63-3.36-3.63h-3.54v22.35h3.54c1.73,0,3.36-.91,3.36-3.36v-15.35Z"/>
  <path class="cls-3" d="m147.57,141.07c.74,1.92,1.34,3.91,1.8,5.95-1.58.2-3.28.3-5.09.3-1.42,0-3.23-.07-5.42-.21-2.18-.14-4.54-.41-7.08-.81-.01,0-.03,0-.04,0v-61.95c.47-.07.93-.14,1.38-.2.68-.1,1.34-.18,1.99-.26,1.32-.16,2.58-.28,3.75-.35,2.13-.14,3.94-.22,5.42-.22,2.04,0,3.93.12,5.66.37-.31,2.05-.76,4.06-1.35,6.01-1.08-.16-2.26-.23-3.54-.23-1.37,0-2.73.09-4.1.26-.35.04-.7.1-1.05.16-.44.07-.89.16-1.33.26v20.49h5.55c.19,0,.38,0,.57,0,.06.96.1,1.93.1,2.91s-.03,1.94-.1,2.9h-6.12v24.05c.86.19,1.68.33,2.47.44,1.31.17,2.65.26,4.01.26.89,0,1.73-.04,2.53-.11Z"/>
  <path class="cls-1" d="m32.42,82.37h4.17c3.56,0,6.9,1.58,6.9,6.99v34.91c0,3-1.33,4.78-3.21,5.69.8,4.48,1.95,8.41,3.71,12.84,7.34-1.54,12.77-7.62,12.93-15.02v-41.24s.19-7.69-7.64-9.95c7.83-2.28,7.64-9.99,7.64-9.99v-34.47c-.18-8.04-6.61-14.56-14.96-15.31-1.47,4.39-2.27,8.37-2.84,12.86,2.45.7,4.36,2.54,4.36,5.96l-.31,27.59c0,5.61-3.35,7.17-6.9,7.17h-4.01c-.58,5.73.15,11.96.15,11.96"/>
</svg>