<?xml version="1.0" encoding="UTF-8"?>
<svg id="Layer_1" data-name="Layer 1" xmlns="http://www.w3.org/2000/svg" viewBox="0 0 459.072167 305.722656">
  <defs>
    <style>
      .cls-1 {
        letter-spacing: -.17em;
      }

      .cls-1, .cls-2 {
        font-family: Ailerons-Regular, Ailerons;
        font-size: 174.445999px;
      }

      .cls-1, .cls-2, .cls-3 {
        isolation: isolate;
      }

      .cls-1, .cls-4 {
        fill: #fa993c;
      }

      .cls-2 {
        letter-spacing: -.220002em;
      }

      .cls-2, .cls-5 {
        fill: #2994b2;
      }
    </style>
  </defs>
  <g class="cls-3">
    <text class="cls-2" transform="translate(22.780503 283.220215)"><tspan x="0" y="0">lnabris</tspan></text>
  </g>
  <text class="cls-1" transform="translate(21.2873 148.277298)"><tspan x="0" y="0">ilal</tspan></text>
  <path class="cls-4" d="m38.546501,97.167v35.764503c-.173901,8.549896-6.970299,15.346298-15.520199,15.346298H.347501V26.1598h22.678802c8.5499,0,15.346302,6.8109,15.520199,15.3463v35.7645s.173901,7.680397-7.158699,9.941002c7.3326,2.275101,7.158699,9.941002,7.158699,9.941002v.014503-.000107Zm-12.5639-52.154099c0-4.535801-3.1446-6.2747-6.448601-6.2747h-6.8109v42.734798h6.8109c3.318501,0,6.448601-1.565102,6.448601-7.158699v-29.301399Zm0,54.950905c0-5.405304-3.1446-6.984802-6.448601-6.984802h-6.8109v42.908691h6.8109c3.318501,0,6.448601-1.738907,6.448601-6.448593v-29.475296Z"/>
  <path class="cls-5" d="m30.417101,270.873993c1.420099,3.680786,2.579401,7.5065,3.4489,11.419098-3.0432.391296-6.303699.57959-9.781601.57959-2.738899,0-6.202301-.130402-10.4047-.405792-4.188001-.275299-8.7237-.782501-13.5928-1.550598h-.0869v-118.958893c.8985-.130402,1.7824-.260803,2.6519-.376801,1.3042-.1884,2.5794-.347794,3.8257-.492706,2.536-.304306,4.9415-.536194,7.2022-.681107,4.101-.275299,7.5644-.405807,10.404699-.405807,3.927099,0,7.549999.231903,10.8685.695602-.594101,3.941605-1.4636,7.796295-2.593899,11.535095-2.0723-.304306-4.332901-.449203-6.7964-.449203-2.6229,0-5.2458.159393-7.868799.492706-.681101.086899-1.3477.1884-2.0288.304306-.855.130402-1.71.304306-2.565.492706v39.343796h11.7379c.1304,1.854904.1884,3.709793.1884,5.593597s-.0725,3.724304-.1884,5.564606h-11.7379v46.183685c1.652.362305,3.2316.637604,4.753099.840515,2.507.333313,5.086401.492706,7.694901.492706,1.710001,0,3.318501-.07251,4.854601-.202911l.0145-.014496-.000101.000305Z"/>
</svg>